<svg xmlns="http://www.w3.org/2000/svg" xmlns:xlink="http://www.w3.org/1999/xlink" width="56" height="67" viewBox="0 0 56 67">
  <defs>
    <clipPath id="clip-path">
      <rect id="Rectangle_62" data-name="Rectangle 62" width="56" height="67" transform="translate(0 0.373)" fill="#e51a4a"/>
    </clipPath>
  </defs>
  <g id="Group_208" data-name="Group 208" transform="translate(0 -0.373)">
    <g id="Group_207" data-name="Group 207" clip-path="url(#clip-path)">
      <path id="Path_384" data-name="Path 384" d="M57.392,119.322l4.823-4.823a1.464,1.464,0,1,0-2.071-2.071l-4.823,4.823L50.5,112.428a1.464,1.464,0,1,0-2.071,2.071l4.823,4.823-4.823,4.823a1.464,1.464,0,1,0,2.071,2.071l4.823-4.823,4.823,4.823a1.464,1.464,0,0,0,2.071-2.071Z" transform="translate(-39.21 -91.493)" fill="#e51a4a"/>
      <path id="Path_385" data-name="Path 385" d="M54.192,5.859H43.939V1.465A1.464,1.464,0,0,0,42.475,0H13.182a1.465,1.465,0,0,0-1.465,1.465V5.859H1.465A1.465,1.465,0,0,0,0,7.323V65.909a1.465,1.465,0,0,0,1.465,1.465H54.192a1.464,1.464,0,0,0,1.465-1.465V7.323a1.464,1.464,0,0,0-1.465-1.465M14.646,2.929H41.01v8.788H14.646ZM52.727,64.444H2.929V8.788h8.788v4.394a1.465,1.465,0,0,0,1.465,1.465H42.475a1.464,1.464,0,0,0,1.465-1.465V8.788h8.788Z" fill="#e51a4a"/>
      <path id="Path_386" data-name="Path 386" d="M185.392,247.322l4.823-4.823a1.464,1.464,0,1,0-2.071-2.071l-4.823,4.823-4.823-4.823a1.464,1.464,0,1,0-2.071,2.071l4.823,4.823-4.823,4.823a1.464,1.464,0,1,0,2.071,2.071l4.823-4.823,4.823,4.823a1.464,1.464,0,1,0,2.071-2.071Z" transform="translate(-143.775 -196.059)" fill="#e51a4a"/>
      <path id="Path_387" data-name="Path 387" d="M85.968,112.905a1.459,1.459,0,0,0-.792-.792,1.479,1.479,0,0,0-.559-.113H72.9a1.465,1.465,0,1,0,0,2.929H81.08L59.355,136.654a7.346,7.346,0,1,0,2.071,2.071L83.151,117v8.181a1.465,1.465,0,1,0,2.929,0V113.465a1.452,1.452,0,0,0-.113-.559M55.323,147.151a4.394,4.394,0,1,1,4.394-4.394,4.4,4.4,0,0,1-4.394,4.394" transform="translate(-39.212 -91.495)" fill="#e51a4a"/>
    </g>
  </g>
</svg>
