<svg id="Group_203" data-name="Group 203" xmlns="http://www.w3.org/2000/svg" xmlns:xlink="http://www.w3.org/1999/xlink" width="67.046" height="78.495" viewBox="0 0 67.046 78.495">
  <defs>
    <clipPath id="clip-path">
      <rect id="Rectangle_58" data-name="Rectangle 58" width="67.046" height="78.495" fill="#e51a4a"/>
    </clipPath>
  </defs>
  <g id="Group_202" data-name="Group 202" clip-path="url(#clip-path)">
    <path id="Path_374" data-name="Path 374" d="M116.561,273.436a18.287,18.287,0,1,0,18.287,18.287,18.308,18.308,0,0,0-18.287-18.287m0,34.275a15.987,15.987,0,1,1,15.987-15.987,16.005,16.005,0,0,1-15.987,15.987" transform="translate(-83.208 -231.515)" fill="#e51a4a"/>
    <path id="Path_375" data-name="Path 375" d="M143.783,305.587a13.358,13.358,0,1,0,7.533,24.385,1.15,1.15,0,0,0-1.3-1.9,11.057,11.057,0,1,1,2.473-2.318,1.15,1.15,0,1,0,1.81,1.419,13.214,13.214,0,0,0,2.843-8.23,13.373,13.373,0,0,0-13.358-13.358" transform="translate(-110.429 -258.737)" fill="#e51a4a"/>
    <path id="Path_376" data-name="Path 376" d="M66.9,9.081A3.662,3.662,0,0,0,65.29,7.065L54.578.55A3.723,3.723,0,0,0,52.646,0,3.139,3.139,0,0,0,49.92,1.472l-16.4,26.959L23.566,12.059a1.15,1.15,0,0,0-1.965,1.2l14.511,23.86A22.987,22.987,0,0,0,20.79,40.67L2.4,10.43a.809.809,0,0,1-.054-.658,1.383,1.383,0,0,1,.608-.742L13.664,2.515a1.384,1.384,0,0,1,.938-.2.809.809,0,0,1,.56.351l4.471,7.351a1.15,1.15,0,1,0,1.965-1.2L17.127,1.473A3.1,3.1,0,0,0,15,.052a3.666,3.666,0,0,0-2.529.5L1.758,7.065A3.661,3.661,0,0,0,.152,9.081a3.1,3.1,0,0,0,.282,2.544c20.55,33.789,19.074,31.668,19.781,31.809a1.15,1.15,0,0,0,.9-.2A20.642,20.642,0,0,1,33.354,39.25a20.853,20.853,0,0,1,4.8.559h0a20.637,20.637,0,0,1,7.66,3.59,1.15,1.15,0,0,0,1.672-.323l19.128-31.45A3.1,3.1,0,0,0,66.9,9.081M64.648,10.43l-18.487,30.4a22.863,22.863,0,0,0-7.008-3.14L34.87,30.645,51.885,2.668a.88.88,0,0,1,.761-.368,1.424,1.424,0,0,1,.737.215L64.095,9.03a1.386,1.386,0,0,1,.607.742.808.808,0,0,1-.054.658" transform="translate(-0.001)" fill="#e51a4a"/>
    <path id="Path_377" data-name="Path 377" d="M194.935,366.811v1.675H201.4v-1.675h-2.149v-7.986h-1.912a5.117,5.117,0,0,1-2.741,1.607v1.743a4.6,4.6,0,0,0,2.741-1.269v5.9h-2.4Z" transform="translate(-164.762 -303.813)" fill="#e51a4a"/>
  </g>
</svg>
