<svg id="Group_206" data-name="Group 206" xmlns="http://www.w3.org/2000/svg" xmlns:xlink="http://www.w3.org/1999/xlink" width="69.993" height="69.991" viewBox="0 0 69.993 69.991">
  <defs>
    <clipPath id="clip-path">
      <rect id="Rectangle_61" data-name="Rectangle 61" width="69.993" height="69.991" fill="#e51a4a"/>
    </clipPath>
  </defs>
  <g id="Group_205" data-name="Group 205" clip-path="url(#clip-path)">
    <path id="Path_378" data-name="Path 378" d="M184.175,71.392c.012.013.015.029.027.042s.027.014.039.024v.006c7,7,27.292,1.05,34.157-8.15A16.459,16.459,0,0,0,220.1,46.236a1.135,1.135,0,0,0-.149-.324A22.311,22.311,0,0,0,209.708,35.67a1.167,1.167,0,0,0-.3-.138,16.519,16.519,0,0,0-17.576,2.075c-.014.012-.032.016-.044.029a20.7,20.7,0,0,0-4.6,5.2c-7.537,11.977-7.438,24.153-3.024,28.565Zm2.594-.876,3.281-3.281,4.866,4.867c-3.44.181-6.321-.38-8.147-1.586M185.18,52.471l3.22,3.219-3.3,3.3-1.249-1.254a33.965,33.965,0,0,1,1.329-5.265m3.064-6.833,5.107,5.1-3.3,3.3-3.978-3.979a39.576,39.576,0,0,1,2.169-4.421m10.762-9.032,4.24,4.24-3.3,3.3L194.4,38.608a14.371,14.371,0,0,1,4.6-2m5.892,5.889,3.3,3.3-3.3,3.3-3.3-3.3Zm8.281-1.685-3.336,3.336-3.3-3.3,2.786-2.781a19.4,19.4,0,0,1,3.849,2.744m4.391,5.506-2.778,2.777-3.3-3.3,3.333-3.337a19.524,19.524,0,0,1,2.743,3.858Zm-.542,14.92L211.489,55.7l3.3-3.3c3.247,3.247-4.3-4.3,4.24,4.24a14.356,14.356,0,0,1-2,4.6M205.57,69.571l-3.978-3.978,3.307-3.308,5.1,5.1a39.444,39.444,0,0,1-4.427,2.177Zm-7.678,2.216-1.249-1.249,3.3-3.3,3.219,3.22a34.082,34.082,0,0,1-5.261,1.326Zm2.05-7.847-3.3-3.3,3.3-3.3,3.3,3.3Zm1.649-8.247,3.307-3.3,3.3,3.3-3.3,3.3Zm4.952-4.955,3.3-3.3,3.3,3.3-3.3,3.3Zm12.84,2.947-2.939-2.947,2.117-2.117a14.535,14.535,0,0,1,.822,5.064m-16.139-2.947-3.3,3.3-3.3-3.3,3.3-3.3ZM198.3,55.69l-3.3,3.3-3.3-3.3,3.3-3.3Zm-8.247,1.649,3.3,3.3-3.3,3.3-3.3-3.3ZM195,62.285l3.3,3.3-3.3,3.3-3.3-3.3Zm17.041,3.849-5.495-5.495,3.3-3.3,5.741,5.742a18.619,18.619,0,0,1-3.545,3.052m-5.026-29.057L204.9,39.191l-2.947-2.939a14.519,14.519,0,0,1,5.062.825M192.556,40.05l5.741,5.742-3.3,3.3L189.5,43.6a18.686,18.686,0,0,1,3.053-3.546m-9.024,20.669,4.868,4.867-3.284,3.284c-1.212-1.824-1.768-4.707-1.584-8.152" transform="translate(-156.374 -29.269)" fill="#e51a4a"/>
    <path id="Path_379" data-name="Path 379" d="M2.676,68.967a3.5,3.5,0,0,0,4.948,0c11.68-11.682,11.547-12.223,29.3-19.188,7.611.144,15.582-2.63,22.025-6.685,13-8.185,14.943-24.308,3.592-35.641C51.246-3.858,35.111-2,26.9,11.043a41.323,41.323,0,0,0-6.69,22.044,74.564,74.564,0,0,1-7.7,15.83A75.425,75.425,0,0,1,1.025,62.369a3.5,3.5,0,0,0,0,4.948Zm26.2-56.684C32.7,6.2,38.7,2.341,45.766,2.341c11.641,0,23.145,11.7,21.77,23.971-1.128,10.082-9.947,14.929-9.83,14.813-11.561,7.273-25.67,8.454-31.459,2.613-5.832-5.779-4.652-19.888,2.627-31.45ZM26.164,46.689c-2.021.945-4.016,1.954-5.948,3.085,1.13-1.927,2.138-3.919,3.081-5.938a11.3,11.3,0,0,0,2.867,2.852Zm-5.376-8.717a17.969,17.969,0,0,0,1.1,3.375,69.825,69.825,0,0,1-6.431,11.561,1.166,1.166,0,0,0,1.622,1.622,69.722,69.722,0,0,1,11.54-6.421,17.974,17.974,0,0,0,3.36,1.1C19.2,54.228,16.692,56.6,8.89,64.4l-3.3-3.3A68.068,68.068,0,0,0,20.788,37.972M2.675,64.018l1.27-1.269,3.3,3.3L5.975,67.316a1.166,1.166,0,0,1-1.649,0l-1.65-1.643a1.166,1.166,0,0,1,0-1.655" transform="translate(0 0)" fill="#e51a4a"/>
    <path id="Path_380" data-name="Path 380" d="M362.038,345.653a11.657,11.657,0,1,0,.034,14.858l.014-.017a11.63,11.63,0,0,0-.048-14.841m-1.283,12.725a6.126,6.126,0,0,1,0-10.553,9.289,9.289,0,0,1,0,10.553Zm-15.37-10.553a6.126,6.126,0,0,1,0,10.553,9.289,9.289,0,0,1,0-10.553m1.576,12.311a8.445,8.445,0,0,0,0-14.068,9.281,9.281,0,0,1,12.223,0,8.445,8.445,0,0,0,0,14.068,9.281,9.281,0,0,1-12.223,0" transform="translate(-294.751 -294.777)" fill="#e51a4a"/>
    <path id="Path_381" data-name="Path 381" d="M78.423,35.356a1.166,1.166,0,0,0-1.166-1.166H60.928a1.166,1.166,0,0,0,0,2.333H77.257a1.166,1.166,0,0,0,1.166-1.166" transform="translate(-51.594 -29.517)" fill="#e51a4a"/>
    <path id="Path_382" data-name="Path 382" d="M45.457,78.022a1.166,1.166,0,0,0-1.166-1.166H26.8a1.166,1.166,0,0,0,0,2.333h17.5a1.166,1.166,0,0,0,1.166-1.166" transform="translate(-22.126 -66.351)" fill="#e51a4a"/>
    <path id="Path_383" data-name="Path 383" d="M1.2,119.524a1.166,1.166,0,0,0,0,2.333h17.5a1.166,1.166,0,1,0,0-2.333Z" transform="translate(-0.025 -103.187)" fill="#e51a4a"/>
  </g>
</svg>
