<?xml version="1.0" encoding="utf-8"?>
<!-- Generator: Adobe Illustrator 24.1.2, SVG Export Plug-In . SVG Version: 6.00 Build 0)  -->
<svg version="1.1" id="Layer_1" xmlns="http://www.w3.org/2000/svg" xmlns:xlink="http://www.w3.org/1999/xlink" x="0px" y="0px"
	 viewBox="0 0 229.2 299.7" style="enable-background:new 0 0 229.2 299.7;" xml:space="preserve">
<style type="text/css">
	.st0{fill:#E51A4A;}
</style>
<path id="Path_365_2_" class="st0" d="M185.3,6.2c-0.5-0.2-2.3-0.6-3.1,1.7c-0.8,2.3-4.8-4.1-5.6-4.6s-2.6-2.2-3.1-1.9
	s-0.5,0.6,1.2,2.5s3.3,4.1,2.5,4.6s-0.9-0.2-1.5,0.5s-0.2,1.9-1,2s-1,1-0.9,2c0,0-1.4,0.6-0.8,2.7c0,0-1.4,1.3-0.7,2.8
	c0,0-3.1,5-5.3,5.7S159,32,160,36.4c-2.5,3.3-4.7,6.8-6.7,10.4c0,0-10.3,6.8-12.5,11.6s-4.1,7.3-6.4,6.6s-6.6-5.8-6.6-5.8
	s-1.1-3.1-0.4-4.6c1.4-3.5,1.3-7.4-0.3-10.8c0.3-0.3,0.5-0.6,0.7-0.9c0.9-1.8,0.5-4-0.9-5.4c0.2-2.4-2.1-5-5.5-6.2
	c-3.8-1.3-7.7-0.3-8.5,2.2c0,0.1,0,0.1,0,0.2c-1.9,0.1-3.8,0.6-5.4,1.5c-5,2.6-5.7,5.4-5.7,5.4s-4.4,5.3-1.7,11.6s3.5,5.9,3.5,5.9
	l1,3.6c2.2,3.9,6.1,6.6,10.6,7.3c0,0,1.9,0.5,2.5-0.6s3.2,5.2,0.1,8.2c-1.3,1.4-2.7,2.6-4.2,3.7c-2,0.4-3.8,1.5-5,3.2
	c0,0-7.3,3.1-13.4,13.6c0,0-11.9,6.7-13.8,9.5c0,0-11.9,3.1-15,7.1c-2.6,3.3-13.3,8.7-17.6,10.5c-1.2,0.5-2.4,1.1-3.5,1.9
	c-0.6,0.5-1.3,0.8-2,1c-1.2,0.1-10.2,1.6-11.1,2.2c-0.9,0.5-5.5,3.3-5.6,3.5s-3.1,3.7-3.1,4.5s0.8,1.4,2,0.1s2.9-3.4,5.4-3.5
	c0,0-1.6,2.8-1.6,3.1s-0.4,3.9-1.1,4.5c0,0-0.7,2.4-0.5,3.1s1.4,1.4,2.4-0.3c0.7-1.3,1-2.8,1-4.3l0.3,5c0,0,0.5,1,1.6,0
	c1.2-1,0.5-5.4,0.5-5.4s0.3-1.2,1.1-1c0,0.7,0.1,1.3,0.3,2c0.4,1,1,1.9,1.7,2.7c0.4,0.2,1.4-0.6,0.6-2s-0.7-2.9-0.4-3.2
	s1.3-2.6,1.8-2.6c2-0.4,3.9-1,5.8-1.7c2-0.8,3.9-1.8,5.6-3.1c2.6-2.1,13.8-2.6,37.6-15.8c4.5-2.5,15.9-8.5,17.8-9.5
	c3.2-1.8,6.4-6.6,10.1-5.4c1.8,0.5,3.5,1.4,4.9,2.7c0.6,0.4,1.4,0.2,1.9,0.8s0.9,1.5,1.6,1.6s0.8,0.8,1.5,1.1s0.7,1.3,1.9,1.8
	c1.1,0.5,0.7,1.2,1.2,1.8c0.6,0.6,1.4,1.8,1.7,2.2c0.3,0.6,0.6,1.2,0.8,1.8c0.3,0.5,0.6,0.8,0.6,1.6s-1.1,2.9-1,4s-2.4,5.5-3,5.6
	c-1.7,0.4-1.3,2.1-2,2.4s-6.2,4.3-8.8,20.5c0,0-0.9,2.7,1,11.3c0,0,0.9,26.3,2.2,29c0,0-3.3-2.2-9.3-2.5s-21.5-2-21.9-3.3
	s-1-5.3-1.9-5.9s-3.7-2.7-8.3,0.6c0,0-3.4,0.1-4.9-1.3s-4-3.6-6.4-3.5c0,0-1.9-0.7-2.8-0.3s-0.7,0.9-0.7,0.9
	c-0.7-0.3-1.4-0.1-1.9,0.4c-0.8,0.9-0.7,2.5,2.1,2.3s5.7,7,10.1,9.9s8.5,5.4,14.2,6.2s27.7,11.7,30.1,15.3c0.4,0.4,0.6,0.9,0.5,1.5
	c0,0-5.8,11.5-4.1,21.7s7.4,30.2,6.2,34.9c-0.6,0.8-1,1.6-1.4,2.6c-1.6,0.6-2.8,2-3,3.6c-0.5,3,1.6,5.9,1.3,7.6s-2.8,10.3,0.4,14.4
	c0,0-0.2,2.9,1.6,2.9c0,0-0.2,1.2,2.3,1.3c0.3-0.1,0.6-0.2,0.9-0.4c0.5,0.6,1.3,1,2.1,0.9c1.2,0,1.2-0.3,1.2-0.5
	c0.2,0.3,1.1,1.5,3.7,0.4c0,0,1.9,1.1,2.9-0.4s0.1-2.9-1.6-3.3s-3.8-2-3.3-3.5c0.5-1.5,3.1-7.7,4-11.4s0.9-11.6-0.6-14.2
	s0.9-49.3,3.2-53.6c3.5-3.4,6.5-7.2,9-11.4c3.9-6.7,12.2-20.7,15.2-47c0.4-3.2,2.1-8.4,3.8-12.2c1.8-4.1-1.2-8,1.3-21
	c0,0,2.8-13-0.4-20.9s-1.1-13.8-1.5-15.2s-0.9-6-8.2-10.5c0,0-1.8-3.6,0.5-8.6s8.6-12,9.7-13.5c3.5-4.8,6.3-10.1,8.2-15.7
	c2.5-7.8,6.8-17.3,8.4-18.4s3.2-2,3.9-5.2S185.8,6.5,185.3,6.2"/>
</svg>
