<svg class="svg-sport" version="1.1" id="Layer_1" xmlns="http://www.w3.org/2000/svg" xmlns:xlink="http://www.w3.org/1999/xlink" x="0px"
                        y="0px" viewBox="0 0 229.2 299.7" style="enable-background:new 0 0 229.2 299.7;" xml:space="preserve">
                        <path id="Path_362" class="st0" d="M120.7,171.8c-0.7-3.2,0.2-6.7-1.1-9.7c-0.3-0.7-0.8-1.4-1.3-1.9c-0.6-0.5-0.9-1.3-1-2.1
                    	c0-0.5,0-1,0-1.4c0-0.5-0.1-0.9-0.3-1.4c0.3,0.1,0.7,0.2,1,0.4c0.1,0.1,0.3,0,0.3-0.1c0,0,0,0,0,0c1.7-5.4,0.2-11-1.9-16.1
                    	c-1-2.6-2.2-5.1-3.2-7.7c-0.6-1.7-1.8-3.4-2-5.2c-0.3-3.4,2.6-7.9,0.2-10.9c-2.1-2.4-4.8-4.2-7.8-5.3c1.1-0.5,2.1-1,3.1-1.4
                    	c4.9-2.3,15-7,15.2-7c0.8-0.3,1.4-0.9,1.7-1.7c0.9-1.7,1.2-3.7,0.9-5.6c-0.5-2.5-1.3-4.8-2.4-7C121,85,110.2,67.2,110.1,65
                    	c-0.1-2,0.8-4-0.1-5.8c-0.4-0.8-0.9-1.5-1.6-2.1c-0.7-0.6-1.1-1.4-1.3-2.2c-0.1-0.7,0-1.4-0.1-2.1c-0.1-1-0.9-1.5-1.5-0.5
                    	c-0.9,1.5-0.5,3.3-0.2,4.9c-0.9-0.6-1.7-1.5-2.4-2.4c-0.1-0.7-0.1-1.5,0.2-2.1c0.2-0.5,0.8-1.2,0.6-1.9c-0.2-0.8-0.9-0.5-1.4-0.1
                    	c0.4-0.7,0.8-1.3,1.3-2c0.6-0.7,0.9-1.7,0.7-2.6c0-0.1-0.2-0.2-0.3-0.2c-0.8,0.1-1.4,1.2-2,1.8c0.1-1.2,0-2.3-0.9-2.3
                    	c-0.1,0-0.2,0.1-0.2,0.2c0,0,0,0,0,0.1c-0.4,1.5-0.7,3.1-1.1,4.6c-0.3,1.1-0.4,2.2-0.3,3.4c0.3,1.5,0.8,2.9,1,4.5
                    	c0.1,1.3,0.7,2.5,1.5,3.5c0.1,0.1,5,8.3,6,12.9c0,0.1,2.8,11,4.2,16.4c0.4,1.6,0.9,3.1,1.6,4.6c-2,0.4-3.8,1.1-5.6,2.1
                    	c-2.4,1.3-4.9,2.1-7.5,2.6c1.5-2.9,2.9-5.9,3-6.2c0.3-0.4,0.5-0.9,0.7-1.4c3.1-7.4-0.6-17.1-2.6-24.4c-1-3.6-1.9-7.1-2.8-10.7
                    	c-0.4-1.8-1.5-4.5-1.2-6.4c0.4-1.9,1.8-3.6,1.4-5.6c-0.2-0.9-0.5-1.7-1-2.5c-0.5-0.7-0.7-1.6-0.7-2.5c0.1-0.7,0.3-1.3,0.4-2
                    	c0.1-1-0.5-1.7-1.4-0.9c-1.2,1.2-1.4,3.1-1.4,4.7c-0.7-0.9-1.3-1.8-1.7-2.9c0-0.7,0.3-1.4,0.7-2c0.3-0.5,1.1-1,1-1.6
                    	c0-0.9-0.7-0.7-1.3-0.4c0.6-0.6,1.2-1.1,1.8-1.6c0.8-0.6,1.3-1.4,1.4-2.4c0-0.1-0.1-0.2-0.2-0.2c-0.8-0.1-1.7,0.8-2.4,1.3
                    	c0.4-1.1,0.6-2.2-0.2-2.5c-0.1,0-0.2,0.1-0.3,0.1c-0.7,1.4-1.5,2.8-2.2,4.2c-0.6,1-1,2.1-1.1,3.2c-0.1,1.5,0,3-0.2,4.6
                    	c-0.2,1.3,0,2.6,0.6,3.8c0,0.1,2.7,9.3,2.5,14c-0.1,2.4,0,4.9-0.1,7.3c0,4.4-0.3,8.5,0.4,12.8c0.6,3.9,0.6,7.9-1.2,11.5
                    	c-0.2,0.4-0.4,0.7-0.6,1.1c-0.2-0.5-0.4-1.1-0.6-1.6C91,90,90.7,89,90.5,88c-0.2-1.9-3.5-3.8-5-4.6c-1.9-1.2-4.2-1.8-6.5-1.8
                    	c-2.2,0.1-5.1,0-7.2,0.7c-2.6,0.9-4.6,2.9-5.5,5.4c-0.2,0.7-0.2,1.6-0.8,2c-0.6,0.4-1.8,0.2-2.5,0.5c-1.4,0.6-2.7,1.4-3.7,2.5
                    	c-2.2,2.1-4.1,4.9-3.7,8.1c0.5,3.6,3.7,6.3,4.1,10c0,0.1,0.1,0.2,0.2,0.2c0.1,0,0.1,0,0.2-0.1c0,0,0.1-0.1,0.1-0.1
                    	c0.9,3.9,4.9,7,4,11.2c0,0.1,0,0.3,0.2,0.3c0.1,0,0.1,0,0.2,0c0.3-0.1,0.5-0.3,0.7-0.6c0,0.6,0,1.2-0.1,1.8c0,0.1,0.1,0.2,0.2,0.3
                    	c0.1,0,0.2,0,0.2-0.1c2.9-3.8,5.5-7.8,4.6-12.8c-0.6-2.4-1.3-4.7-2.3-7c-0.5-1.2-0.8-2.4-1.1-3.6c-0.3-1.1-0.6-2.7,0.3-3.7
                    	c-0.4,0.4,0.3,2.8,0.4,3.3c0.3,1.1,0.7,2.2,1.2,3.2c1.7,3,7.4,5.9,10.8,4.3c0.2-0.1,1.7,1.4,1.9,1.5c-0.2,0.2-1,1.3-1.2,1.6
                    	c-0.9,2.3-0.8,4.9,0.2,7.2c1.5,3.5,3.2,6.9,5.1,10.1c1.8,3.5,4,6.9,5.3,10.6c1.2,3.3,1.3,6.9,0.3,10.3c-0.3,1-0.7,1.9-1.2,2.8
                    	c-0.4,0.8-1,1.5-1.4,2.2c-0.4,0.7-0.2,1.7,0.5,2.2c-0.5,0.4-0.8,0.8-1.1,1.3c-0.1,0.1,0,0.3,0.1,0.3c0,0,0,0,0,0
                    	c0.7,0.1,1.3,0.3,2,0.4c-1.7,2.1-3,4.5-3.8,7.2c-0.8,3-0.9,6.2-0.5,9.3c0.4,3.4,0.7,6.8-1.1,9.9c-0.3,0.5-0.6,1.1-0.7,1.7
                    	c-0.1,0.8-0.1,1.6,0,2.3c0.1,1.8-0.1,3.5-0.6,5.2c-0.5,1.7-1.2,3.3-2.1,4.8c-0.7,0.9-0.8,2.2-0.4,3.2c1.1,2.4,3.7,4,6.1,4.8
                    	c0.1,0,0.2,0,0.3,0.1c-0.5,6.4-0.7,11.5-0.8,12.8c-6.5,4.6-11.6,10.7-15,17.9c-2,4.4-3.4,9-5,13.5l-3.1,8.6
                    	c-0.4-1.1-1.1-2.5-1.9-1.5c-0.6,0.7-0.2,1.7-0.3,2.4c-0.1,1.4-1.5,1.8-2.6,2.3c-1.2,0.4-2.4,1.1-3.4,1.8c-0.5,0.4-1.1,0.8-1.8,1
                    	c-1.2,0.5-1.4,2.3-0.9,3.5c0.3,0.7,2,7.5,2.2,9c1,5.8,3.3,11.3,6.8,16.1c1.4,1.9,3.2,2.9,5.5,1.9c1.7-0.8,3.5-2.6,2.6-4.6
                    	c-0.7-1.3-1.3-2.7-1.8-4.1c-0.3-1.6-0.4-3.3-0.3-5c0.1-3,0.2-6,0.6-8.9c0.1-1.5,0.6-3,1.4-4.2c0.7-0.7,1.4-1.4,2.2-2.1
                    	c0.4,1.8,0.9,3.6,1,4.2c1,5.8,3.3,11.3,6.8,16.1c1.4,1.9,3.2,2.9,5.5,1.9c1.7-0.8,3.5-2.6,2.6-4.6c-0.7-1.3-1.3-2.7-1.7-4.1
                    	c-0.3-1.6-0.4-3.3-0.3-5c0.1-2.9,0.2-6,0.6-8.9c0.1-1.5,0.6-3,1.4-4.2c0.7-1.1,2.3-1.7,2.8-3c0.3-0.7-0.1-1.6-0.8-1.9c0,0,0,0,0,0
                    	c-0.9-0.4-1.9-0.1-2.9-0.3c6.4-8.6,19.7-29.4,24.7-35.7c1-0.6,1.9-1.3,2.6-2.2c1.3-1.7,2.4-3.5,3.1-5.6c0.2-1.2,0.7-2.4,1.5-3.4
                    	c1.1-1.4,1.9-3,2.6-4.6c1.9-0.3,3.8-1.1,5.4-2.2c0.1-0.1,0.2-0.4-0.1-0.4c-1.8-0.4-0.4-4.6-0.2-5.7c0.4-1.9,0.6-3.8,0.7-5.8
                    	c0.2-3.5-0.5-7.1-2.1-10.2C123.7,178.2,121.5,175.3,120.7,171.8" />
                        <path id="Path_363" class="st0" d="M123.4,2.6c-9.8,0-17.7,7.9-17.7,17.7c0,9.8,7.9,17.7,17.7,17.7s17.7-7.9,17.7-17.7c0,0,0,0,0,0
                    	C141.1,10.6,133.2,2.6,123.4,2.6" />
                    </svg>