<?xml version="1.0" encoding="utf-8"?>
<!-- Generator: Adobe Illustrator 24.1.2, SVG Export Plug-In . SVG Version: 6.00 Build 0)  -->
<svg version="1.1" id="Layer_1" xmlns="http://www.w3.org/2000/svg" xmlns:xlink="http://www.w3.org/1999/xlink" x="0px" y="0px"
	 viewBox="0 0 229.2 299.7" style="enable-background:new 0 0 229.2 299.7;" xml:space="preserve">
<style type="text/css">
	.st0{fill:#E51F4C;}
	.st1{fill-rule:evenodd;clip-rule:evenodd;fill:#E51F4C;}
</style>
<g>
	<path id="Path_359_3_" class="st0" d="M207.2,197.2c-0.9-1.3-1.8-2.6-2.7-3.8c-1.8-2.3-7.4-2.7-10-3.4c-2.2-0.5-4.4-1.1-6.6-1.7
		c-2.4-0.8-3.2-1.7-5.1-3.2c-2.4-1.9-9.2-2.7-9,2.1l0.3,7.6l-11.1,3.8c-3.5,1.2-8.6,2.3-10.6,5.9l-24.9-38.7l-12.9-19.7
		c-0.1-0.2,1.2-2.4,1.2-2.9c0-1.8-1.4-3.6-2-5.3c-0.8-2.6-1.5-5.3-2.1-8c-0.7-2.8-1.2-5.6-1.6-8.4c-0.1-1-0.4-4.4,0.6-5.1
		c2-1.4,3,3.7,4.8,4.3c2.4,0.9,2.6-0.4,4.5,1.3c1,0.9,5,8.1,6.5,7.6l7.9,10.3l5.9,2.1c0,0,2.6,1.8-1.8,4.1c0,0-4.7,5,2.3,3.5
		c0,0,8.5-1.2,8.2-3.5c0,0,6.5-6.2-2.1-12.3c-0.7-0.5-2.6-2.3-2.6-2.3c-3.5-5.9-12.6-16.4-12.6-16.4l-2.6-6.5
		c-3.1-6.4-5.4-13.3-9.5-19.1c-2.1-2.7-4.5-5.2-7.2-7.2c-2.8-2.4-5.9-4.4-9.1-6.2c-2.5-1.3-5.5-2.2-7.1-4.7c-1-1.6-3-1.4-3.9-3.1
		c-0.5-0.8-1.4-5-0.7-5.7c0,0,7-6.8-0.6-12.3c0,0,9.4-18.2-15.9-18.8c0,0-23.5,8.8-11.2,22.6c0,0-0.6,10.6,2.9,9.7l3.8,9.7
		c0,0-6.1,2-6.2,2.1c0.9-0.3-4.1-5.6-4.6-6c-3.3-2.3-6.9-4-10.1-6.4c-1.5-1.2-4.7-3.1-5.5-4.8c-1.4-3.1,1.9-6.5,2.2-9.4
		c0.3-2.6-1.3-4.4-2.8-6.3c-0.9-1.1-1.6-3.8-2.7-4.5c-1-0.6-5.2-0.5-6,0.5c-1,1.2-0.3,3.6-1.3,5.1c-1.4,2.1-1.8,2.4-1.6,4.9
		c0.2,1.5,0.4,3,0.7,4.4c0.1,1,0.4,1.9,0.8,2.7c0.7,1,1.7,1.3,2.4,2.4c0.7,1.1,1.3,2.2,1.9,3.3c1.1,1.8,2.5,3.5,3.6,5.3
		c2.6,4.4,5.1,8.8,7.6,13.2c0.9,1.6,1.9,3.2,2.8,4.7c1.6,2.7,2.1,3,5.2,3.3c3.8,0.5,3.8,4.5,3.2,7.3c-0.6,3.1-1.5,6-1.5,9.1
		c0,5.1,1.4,10,1.4,15.1c0,0,2.9,25.2,2.9,25.2c1.1,9.7,1.2,19.8-2.5,29c-1.9,4.7-4.8,8-8.8,11.1c-5.3,4.2-8.2,9.5-11.4,15.2
		c-2.9,5.2-8.2,9.5-9.3,15.7c-0.6,3.4,0.5,6.7,1.2,10c2.6,12.9,2.2,26.7,1.6,39.8c0,0.1-0.4,5-1,4.5c-0.1-0.1-3.7,2.4-3.9,2.5
		c-0.1,0,0-0.1,0-0.1c-2.6,1.4-5.6,3.3-8.6,3.9c-4.6,1-10.6,1.3-14.6,4c-5.7,3.8,2.1,7.2,5.4,8.4c11.3,4.2,24,2.8,36,3.6
		c0,0,6.5-1.8,2.9-13.5c-0.1-4.7-0.1-9.5,0.1-14.2c0.3-5.4,1.8-10.4,3.5-15.4c1.8-5.1,1.8-8,1.5-13.3c-0.1-1.4-2.5-14.6-2.5-14.6
		c2.1-1.3,5-4.3,7.6-4.3c4.1,0,5.5,4.6,8.9,2.2c2.5-1.7,3.9-5.2,6.1-7.3c5.8-5.8,12.8-10.9,19.2-16.1c5.2,2.3,9.8,5.8,14.3,9.3
		c1.9,1.5,3.6,3.3,5.5,4.8c1,0.9,2.1,1.5,3.3,2c1.4,0.3,1.9-0.8,3.2-0.7c4,0.2,6.9,4.1,9.5,6.7c3.4,3.5,7.4,6.3,11.1,9.3
		c12.3,9.9,23.1-4.6,31.7-11.7c3.7-3,9.9-8.7,15.1-7c3.4,1.1,4.9,0.4,7.8-1.6l9.4,1.2C205.7,208.1,214.6,206.9,207.2,197.2"/>
	<path id="Path_360_3_" class="st1" d="M114.6,277.3c0-10.4-8.5-18.9-18.9-18.9c-10.4,0-18.9,8.5-18.9,18.9
		c0,10.4,8.5,18.9,18.9,18.9C106.1,296.3,114.6,287.8,114.6,277.3L114.6,277.3"/>
</g>
</svg>
