<?xml version="1.0" encoding="utf-8"?>
<!-- Generator: Adobe Illustrator 24.1.2, SVG Export Plug-In . SVG Version: 6.00 Build 0)  -->
<svg version="1.1" id="Layer_1" xmlns="http://www.w3.org/2000/svg" xmlns:xlink="http://www.w3.org/1999/xlink" x="0px" y="0px"
	 viewBox="0 0 229.2 299.7" style="enable-background:new 0 0 229.2 299.7;" xml:space="preserve">
<style type="text/css">
	.st0{fill:#E51A4A;}
</style>
<path id="Path_369_2_" class="st0" d="M82.1,82.8c0,0,3.3-5.9,3.5-9.4c0.1-1-0.2-1.9-0.7-2.7c0.7-0.9,1.1-1.9,1.2-3.1
	c0-1.4-2-8.8-3-10.5c0.2-0.6,0.1-1.2-0.3-1.7c-3.6-4.1-9-6.2-14.4-5.5c-8.8,1-13,9.9-13.1,14.1s1.4,8.6,0,10.9s-4.2-2.3-5-2.7
	s-2.7,0.3-3.5,0.1c-2.3-1.1-4.8-1.3-7.2-0.7c-3.9,1-5.8,0.2-8.8,4.7c-1.1,0.9-2.4,1.6-3.7,2.2c-1.2,0.3-0.6,2-2.5,3.1
	S21,86,20.8,87.5s-3.9,0.2-9.2,9.9S8,113.1,8,113.1c0.8,1.6,1.7,3.2,2.8,4.6c0,0,14.2,4.6,18.6,5.1l1.5-0.5
	c-0.1,4.5,0.4,9.1,1.4,13.5c1.6,6.1,8.2,15.5,8.2,15.5s-1,0.9-0.6,3c0.5,1.8,1.2,3.6,1.9,5.4c0,0-0.1,1,2.3,1.6
	c0.4,2.3,0.4,4.6,0.2,6.9c-0.5,2.7-20,26.2-20,26.2l5.4,3.4L42.8,177c0,0,0.6,7.2-0.6,9c-1,1.2-1.4,2.8-1,4.4
	c0.3,1.4-7.2,25.1-8.2,31.1s-1.3,9.7-0.3,11.3s1.4,3.2,3.6,4.3s6.3,2.7,7.1,2.6s11.8-0.2,22-3.5s10.1-0.3,10.1-0.3s-0.6,3.6,0.3,4.9
	c-0.2,0.6,0,1.2,0.4,1.7c0,0-0.3,2.7,0.9,3.1c0,0-0.2,1.3,0.9,1.6s1.4-0.9,1.4-0.9s-0.3,1.6,0.3,1.9s1.6,0.3,1.9-0.5
	c0.2-0.7,0.3-1.3,0.3-2c0.2,0.9,0.2,1.9-0.1,2.7c-0.5,1.2,1.6,2.4,3.4,0.9s2.9-5.5,2.5-7.6s-2.9-3.1-2.8-11
	c-0.1-1.6,0.2-3.1,0.9-4.5c1.1-1.7,0.1-6.3-2.9-5.9c0,0-2.9-0.3-4.2,1.7s-2.6,1.5-2.6,1.5c-0.3-1.3-0.7-2.5-1.2-3.6
	c-0.6-0.9-1.3,1.4-5,0.7c0,0-0.4-0.7-2.2-0.4c-1.3-0.9-3-0.9-4.4,0c0,0,3.3-1.6,4.4-4s-0.2-2.8,1.1-4.1s4.5-9.5,5.1-10.9
	s1.9-8.8,4.3-10.3s7.4-10.5,8.5-10.9s1.7,3.6,1.7,3.6l6.3-3.8l-0.7-2.8c0,0,9.5-3.4,12.4-3.3s19.6-4.5,22.5-6
	c2.9-1.5,10.6-4.9,12.9-4.9c4.9-0.1,9.8,0.1,14.8,0.6c8.1,0.7,17.8-2.7,19.5-2.8s13.5,0,18.7-1.9c3.7,0,7.4,0.7,10.9,2
	c5,2.1,6.9,3.4,9.1-1.3c0,0,0.9-0.9,0.6-6c0,0,3.6-3.3,4.1-3.3s2.4-2,1.5-6.8c0.4-1.9,0.2-3.9-0.7-5.6c0.2-0.6-0.1-1.2-0.6-1.6
	c0-0.8-0.7-1.5-1.5-1.5c-0.1,0-0.2,0-0.3,0c-0.5-0.4-1.3-0.3-1.7,0.1c-0.8,0.8-0.7,2.6-0.6,3.1c-0.7-0.5-1.6-0.6-2.3-0.2
	c-1.2,0.8-1,3-0.3,3.6c0.7,0.9,0.6,2.2-0.3,2.9c-0.2,0.2-0.5,0.3-0.8,0.4c-1.9,0.6-6.4,4.3-7.6,4.5s-9.8,0.9-10.5-0.3
	s-11.7-21.1-14.4-22s-26.1,15.1-31.1,14.8s-7.8-1.7-12.3,1.2s-15.7-0.1-19.3,0.1s-17.5,0.3-20.6-0.8s-3.8-2.7-7.7-3.3l-1.6-1.5
	c1.2-1.4,1.2-3.5,0-4.9c0.3-2.7-0.2-5.5-1.5-7.9c0,0,3.3-12.1,4.9-12.4s2.4-2.9,3.5-2.7s15.6-0.3,16.5-0.7s2.7-1.6,4.3-1.5
	s8.2-0.6,9.2-1.2s2.4-3.3,3.8-2.7c1.4,0.6,14.2,1.4,14.2,1.4s20-0.8,20.1-1.4c0-1.2-0.1-2.5-0.2-3.7c2.7-0.7,5.5-0.9,8.2-0.5
	c0.7,0.8,1.6,1.2,2.7,1.3c1.7,0.1,3.5-1.2,4.6-1.7s5.4-0.7,5.4-0.7s1-0.5,1.2-1.2s0.9-3.3-2.5-2.9c0,0-2,1-2.7,0.9s0.6-1.6,1.3-1.8
	c1-0.7,2-1.6,2.8-2.5c1.1-0.9,2.1-1.8,3.1-2.9c0,0,2.2-2.3,3.3-2.6c0.6-0.2,1-0.9,0.7-1.6c-0.1-0.2-0.2-0.3-0.3-0.5
	c0,0,1.2-0.7,1.4-1.2s0.3-1.7-1.5-1.5c-0.6-0.4-1.3-0.5-2-0.3c-1.2,0.3-8.8,5.1-10.9,6.2s-4.9,3.3-8.8,5.4c0,0-0.5,0.5-1.6-0.1
	s-2.6-0.1-3.3,0s-3.9-0.2-4.2-0.7s-4.3-12.4-6.5-13.7c0,0-8.2,3.7-13.8,8.6c-2.2-0.6-4.6-0.6-6.8,0.2c-3.6,1.2-3.7-1.1-4.7-1.3
	s-2.2,1.2-3.1,1.1s-5.1-1-7-0.9s-3.7,0.5-5.2,0.5s-5.8-0.6-7.6,0.5s-7.7-2.4-8.9-2.6s-3.2-0.7-4.8,1c-0.8,0.9-1.9,1.5-3.1,1.5
	c0,0-2.2-0.6-2.6,0C84.4,84.2,83.5,83.1,82.1,82.8"/>
</svg>
