<?xml version="1.0" encoding="utf-8"?>
<!-- Generator: Adobe Illustrator 24.1.2, SVG Export Plug-In . SVG Version: 6.00 Build 0)  -->
<svg version="1.1" id="Layer_1" xmlns="http://www.w3.org/2000/svg" xmlns:xlink="http://www.w3.org/1999/xlink" x="0px" y="0px"
	 viewBox="0 0 229.2 299.7" style="enable-background:new 0 0 229.2 299.7;" xml:space="preserve">
<style type="text/css">
	.st0{fill:#0F385F;}
</style>
<path id="Path_367_3_" class="st0" d="M214.2,197c-0.3-2.3-1.6-10.6-14.9-17.8c0,0-7.2,0.7-8-3.8c-0.8-4.4-9.5-7.1-12.5-6.2
	c0,0-1.3,2.3-0.9,2.8c0,0-1.5,2.1-1.1,3.5c0,0-2.1,3.2-1.7,4.6c0,0-2.3,4.2-1.3,5.4c0,0-1.9,4.3-17.4,8.7s-25.1,18-25.2,20.1
	c-0.1,2.1-2.9,1.2-5.6-4.6c-2.7-5.8-5.8-11.5-9.4-15.2c-3.6-3.6-7.1-11.4-6.7-12.9c0.4-1.5,0.1-1.2-0.6-3.1c0,0,0.3-1-0.6-1.2
	c0,0,5.3-16.1-11.9-28.3c-1-0.8-2.1-1.4-3.3-1.8c-1.3-0.3-1.6,0.4-2.5-0.3c-0.9-0.7-1.2-0.9-1.4-2.2c-0.2-0.9-0.7-1.8-1.4-2.4
	c-0.5-0.5-1-2.6-1.7-3c-0.7-0.4,0-1.8-1.7-4.3c-1.7-2.5-1.6-8.3-2.1-9.3c-1.2-2.1-2.4-2.9-2.2-4c0.2-1.1-2.1-5.4-2.6-15.8
	c-0.5-10.4-8.6-22.4-12.8-20.7c-1.1-0.5-2.3-0.6-3.5-0.4c0,0-3.8,0-2.3-2.2c1.1-1.6,5-7.4,3.5-8.6l1.1-0.1c0,0,1.9-3.3,2.2-4.6
	l-0.3-1c0.1-0.4,0.2-0.8,0.3-1.2c0.8,0.6,1.5,1.6,2.3,2c2.1,1,4.4,1.7,6.6-0.8c2.1-2.5-0.3-3.8-0.3-3.8c2.3-1.1,0.3-4,0-4.8
	c-0.3-0.8-2,0.4-2.7-1.5s-2.3,0.3-4,0c-1-0.1-2,0.3-2.8,0.9c-1.4-3.5-1.7-4.5-2.4-5c-0.2-0.2-0.6-0.5-1.2-0.9
	c6.3-6.5,9.8-3.8,9.8-3.8c4.8,1.9,14.1-8.5,16-10.5c4.3-4.5,23.8-32.4,9.2-32.4s-29,30.9-30.7,34.4c-1.3,2.6-6.4,8-8.9,10.6
	c-0.2,0-0.4,0-0.7,0c-1.7-0.5-3.3-1-4.8-1.7c-1-0.5-2.2-0.2-2.8,0.8c0,0,0,0,0,0.1c0,0-2.9-1.7-4.4-0.1S42.8,52,42.8,52h-0.7
	c0,0-6.2,4.4-6.7,5.6l-10.1,2.8c0,0,0.5,4,3.9,3.2c0,0,2.5,0.5,2,2.5c-1.1,4.2-9.4,5.3-12.8,11.7c-0.5,0.9-1.1,1.8-1.8,2.7
	c-0.7,0.8-1.2,1.8-1.5,2.9c-0.4,1.7,0,3.5,1.1,4.8c0.9,1,2.4,2.8,4.1,4.9c4.1,4.8,7.6,5.7,10.1,6.8c4.5,2,4.3,3.1,4.8,6.6
	c0.5,3.5,0,14.9,0,14.9s-2.3,6.7,8.3,12.7c0,0,4.2,10.6,6.7,13.7c2.5,3.1,9.5,14.5,9.9,18.5c0,0-8.3,10.6-9.4,10.6v2
	c0,0-13.3,17.7-15.7,27.5c-0.7,1.2-1.5,2.3-2.4,3.3c-3.9,4.8-3.4,7-1.1,13.7c0.1,0.2,0.9,3.2,1.1,3.4c0,0,11.1,40.5,10.5,45.7
	c-0.1-0.5-0.5-0.8-1-0.7c-0.1,0-0.1,0-0.2,0.1c-1.1,0.3-0.3,3.4-0.9,3.6c-0.7,0.3-0.8-1.2-1.9-0.7s-0.8,1.6,0.1,2.3
	c0,0-0.4,1.3-5.1,2.7c0.7,0.4,1.6,0.4,2.3,0c0,0-4.7,4.4-9.5,5c-4.8,0.5-5.9,1.7-5.8,3.5c0.1,1.7-0.1,3.1,3.6,3.6
	c3.8,0.5,16.2,1.2,17.7,1.2c1.5,0,4.7-1.9,7.9-0.9c3.2,0.9,10.2,1.1,14.4-2c0,0-0.3-4.2-2.4-5.6c0,0,0.1-3.1-2.1-4.8
	c0,0-1.7-5.9-2.7-7c-0.9-1.1-1.5-0.8-1.5-0.8s-3-12.7-1.7-22.4c1.2-9.7-5.2-29.2-5.2-29.2S58.8,209,65.3,206
	c6.6-3,15.3-11.7,16.8-16c0,0,8.1,16.2,26.4,31.8c5.7,4.8,14.2,15,19.6,12.7c0.6-0.2,1.3-0.4,1.9-0.5c1.8-0.5,3.4-1.4,4.8-2.6
	c3.1-3,9.3-8.5,13-10c5.2-2.1,21.9-22.7,35.8-24.4c0,0,0.7,1.6,1.3,1.7s3.9-1.6,3.9-1.6s0.5,0.8,2,0.5c0,0,0.7-1.3,1.9-1.2
	c1.2,0.1,6.7-0.1,8.2,0.3c1.5,0.4,2.1,1.3,3.9,0.8c0,0,3.4,1.5,4.8,2.8C211.1,201.7,214.5,199.3,214.2,197 M72.7,37.4
	c8.8-22.9,24.2-30.1,24.4-25.9C97.7,23.7,62.5,63.8,72.7,37.4 M62.5,48.8l5.1-6.2c0,0-1.1,3.5,0,4C67.6,46.7,64.1,47.4,62.5,48.8
	L62,49.5C62.1,49.2,62.3,49,62.5,48.8 M44.5,86.2c0,0.6-0.1-0.7-1.7,0.6c0,0-2.5-0.1-3.4,0.4c0,0-4.4-2.6-8.9-2.5c0,0-0.1-1-2.2-2.3
	c0,0,4.2-5.6,3.7-5.6c0,0,0.1,0.9,0.4,1.1c-0.4,0.9-0.1,2,0.8,2.4c0,0,0,0,0,0c0.2,0.5,0.2,1,0,1.5c-0.3,1-0.3,4.6,5.7,2.9
	C38.8,84.8,44.5,83.9,44.5,86.2"/>
</svg>
