<svg xmlns="http://www.w3.org/2000/svg" width="22.533" height="22.601" viewBox="0 0 22.533 22.601">
  <g id="Group_189" data-name="Group 189" transform="translate(0)">
    <g id="Group_185" data-name="Group 185">
      <g id="Group_184" data-name="Group 184">
        <path id="Path_282" data-name="Path 282" d="M2654.424,3980.613c3.009,0,3.365.009,4.553.065a6.273,6.273,0,0,1,2.093.389,3.741,3.741,0,0,1,2.138,2.145,6.286,6.286,0,0,1,.389,2.1c.053,1.192.064,1.549.064,4.566s-.012,3.375-.064,4.567a6.283,6.283,0,0,1-.389,2.1,3.736,3.736,0,0,1-2.138,2.144,6.156,6.156,0,0,1-2.093.39c-1.188.055-1.544.066-4.553.066s-3.364-.011-4.552-.066a6.149,6.149,0,0,1-2.092-.39,3.729,3.729,0,0,1-2.138-2.144,6.27,6.27,0,0,1-.389-2.1c-.054-1.192-.065-1.549-.065-4.567s.011-3.375.065-4.566a6.273,6.273,0,0,1,.389-2.1,3.733,3.733,0,0,1,2.138-2.145,6.265,6.265,0,0,1,2.092-.389c1.188-.056,1.544-.065,4.552-.065m0-2.037c-3.059,0-3.442.013-4.645.068a8.271,8.271,0,0,0-2.735.525,5.771,5.771,0,0,0-3.3,3.306,8.28,8.28,0,0,0-.524,2.742c-.055,1.207-.067,1.59-.067,4.659s.012,3.454.067,4.66a8.27,8.27,0,0,0,.524,2.743,5.773,5.773,0,0,0,3.3,3.305,8.255,8.255,0,0,0,2.735.526c1.2.054,1.586.066,4.645.066s3.445-.012,4.646-.066a8.247,8.247,0,0,0,2.735-.526,5.771,5.771,0,0,0,3.3-3.305,8.322,8.322,0,0,0,.523-2.743c.056-1.206.068-1.59.068-4.66s-.011-3.453-.068-4.659a8.332,8.332,0,0,0-.523-2.742,5.769,5.769,0,0,0-3.3-3.306,8.263,8.263,0,0,0-2.735-.525c-1.2-.055-1.585-.068-4.646-.068" transform="translate(-2643.158 -3978.575)" fill="#fff"/>
        <path id="Path_283" data-name="Path 283" d="M2654.987,3984.637a5.8,5.8,0,1,0,5.785,5.8,5.795,5.795,0,0,0-5.785-5.8m0,9.569a3.766,3.766,0,1,1,3.755-3.767,3.76,3.76,0,0,1-3.755,3.767" transform="translate(-2643.719 -3979.139)" fill="#fff"/>
        <path id="Path_284" data-name="Path 284" d="M2663.422,3984.245a1.352,1.352,0,1,1-1.351-1.355,1.354,1.354,0,0,1,1.351,1.355" transform="translate(-2644.789 -3978.977)" fill="#fff"/>
      </g>
    </g>
  </g>
</svg>
