<svg xmlns="http://www.w3.org/2000/svg" width="21.734" height="19.955" viewBox="0 0 21.734 19.955">
  <path id="Path_288" data-name="Path 288" d="M2545.108,3998.955h-4.237V3985.4h4.237Zm-2.227-15.252h-.031a2.35,2.35,0,0,1-2.527-2.348,2.581,2.581,0,1,1,2.557,2.348Zm19.176,15.252h-4.8v-7.015c0-1.836-.75-3.09-2.4-3.09a2.427,2.427,0,0,0-2.293,1.661,3.132,3.132,0,0,0-.1,1.108v7.335h-4.76s.062-12.427,0-13.556h4.76v2.127c.281-.93,1.8-2.257,4.228-2.257,3.01,0,5.377,1.95,5.377,6.148Z" transform="translate(-2540.324 -3979)" fill="#fff"/>
</svg>
