<svg xmlns="http://www.w3.org/2000/svg" width="21.897" height="17.849" viewBox="0 0 21.897 17.849">
  <g id="Group_187" data-name="Group 187" transform="translate(0)">
    <g id="Group_180" data-name="Group 180">
      <path id="Path_280" data-name="Path 280" d="M2488.222,3997.02a12.771,12.771,0,0,0,19.656-11.38,9.15,9.15,0,0,0,2.241-2.332,8.964,8.964,0,0,1-2.579.709,4.511,4.511,0,0,0,1.974-2.492,8.96,8.96,0,0,1-2.852,1.093,4.5,4.5,0,0,0-7.656,4.111,12.745,12.745,0,0,1-9.26-4.709,4.519,4.519,0,0,0,1.392,6.016,4.454,4.454,0,0,1-2.036-.563,4.507,4.507,0,0,0,3.6,4.475,4.483,4.483,0,0,1-2.028.078,4.5,4.5,0,0,0,4.2,3.129A9.009,9.009,0,0,1,2488.222,3997.02Z" transform="translate(-2488.222 -3981.196)" fill="#fff"/>
    </g>
  </g>
</svg>
